<svg xmlns="http://www.w3.org/2000/svg" viewBox="0 0 24 24">
  <defs>
    <linearGradient id="toothGradient" x1="0%" y1="0%" x2="100%" y2="100%">
      <stop offset="0%" style="stop-color:#60A5FA;stop-opacity:1" />
      <stop offset="100%" style="stop-color:#2563EB;stop-opacity:1" />
    </linearGradient>
  </defs>
  <path fill="url(#toothGradient)" d="M12 2C9.5 2 7.8 3 6.7 3.9C5.4 4.9 4.5 6.3 4.2 7.9C3.9 9.5 4.1 10.9 4.4 12.4C4.6 13.4 4.9 14.4 4.9 15.4C4.9 16.6 4.6 17.7 4.5 18.9C4.4 19.9 4.5 21 5.3 21.6C6.2 22.3 7.3 21.8 7.9 21C8.6 20.1 8.8 18.9 9.1 17.8C9.4 16.7 9.8 15.6 10.6 15.1C11 14.8 11.5 14.8 12 14.8C12.5 14.8 13 14.8 13.4 15.1C14.2 15.6 14.6 16.7 14.9 17.8C15.2 18.9 15.4 20.1 16.1 21C16.7 21.8 17.8 22.3 18.7 21.6C19.5 21 19.6 19.9 19.5 18.9C19.4 17.7 19.1 16.6 19.1 15.4C19.1 14.4 19.4 13.4 19.6 12.4C19.9 10.9 20.1 9.5 19.8 7.9C19.5 6.3 18.6 4.9 17.3 3.9C16.2 3 14.5 2 12 2Z"/>
</svg>

