<svg xmlns="http://www.w3.org/2000/svg" viewBox="0 0 100 100">
  <defs>
    <linearGradient id="toothGradient" x1="0%" y1="0%" x2="100%" y2="100%">
      <stop offset="0%" style="stop-color:#60A5FA;stop-opacity:1" />
      <stop offset="100%" style="stop-color:#2563EB;stop-opacity:1" />
    </linearGradient>
  </defs>
  <path fill="url(#toothGradient)" d="M50 5C35 5 25 15 20 30C15 45 15 60 20 75C25 90 35 95 50 95C65 95 75 90 80 75C85 60 85 45 80 30C75 15 65 5 50 5ZM50 20C58 20 63 25 65 35C67 45 67 55 65 65C63 75 58 80 50 80C42 80 37 75 35 65C33 55 33 45 35 35C37 25 42 20 50 20Z"/>
</svg>

